REM MD5 5e399e6d3d910ea2666c6b7b97994c0c
FILE "DemoDemo PlayStation Soukan-gou Vol. 1 (Japan).bin" BINARY
  TRACK 01 MODE2/2352
    INDEX 01 00:00:00
  TRACK 02 AUDIO
    INDEX 00 31:41:03
    INDEX 01 31:43:03
  TRACK 03 AUDIO
    INDEX 00 37:23:03
    INDEX 01 37:25:03
  TRACK 04 AUDIO
    INDEX 00 40:03:47
    INDEX 01 40:05:47
  TRACK 05 AUDIO
    INDEX 00 42:57:03
    INDEX 01 42:59:03
REM LEADOUT 43:31:55
